<?xml version="1.0" encoding="UTF-8"?>
<svg id="Outlines" xmlns="http://www.w3.org/2000/svg" viewBox="0 0 324 144" width="819" height="357">
  <defs>
    <style>
      .cls-1 {
        fill: #fff;
      }
    </style>
  </defs>
  <g id="Logo">
    <g id="Established_2020_-_Outlines" data-name="Established 2020 - Outlines">
      <path class="cls-1" d="m126.31,128.71l-.42,1.66-.05.19-.29-.19h-4.44v-.04c.35-.13.65-.31.65-.62v-4.87c0-.31-.3-.41-.65-.45v-.04h4.61l.28,1.37-.03.02c-.58-.82-.93-1.25-1.88-1.25h-1.45v2.81h1.2c.91,0,1.17-.23,1.38-.87v1.88c-.21-.64-.46-.87-1.38-.87h-1.2v2.81h1.62c.96,0,1.35-.54,2.02-1.54l.03.02Z"/>
      <path class="cls-1" d="m127.62,129.93l.48-.8h.02c0,.75.81,1.18,1.48,1.18.59,0,.79-.34.79-.74,0-.57-.4-.79-1.08-.9-1.33-.21-1.59-.84-1.59-1.31,0-.77.72-1.21,1.64-1.21.64,0,1.23.21,1.57.49l-.54.81h-.02c.03-.75-.73-1.17-1.32-1.17s-.72.39-.72.71c0,.61.59.78,1.14.87,1.3.21,1.53.79,1.53,1.25,0,.77-.65,1.33-1.72,1.33-.68,0-1.29-.22-1.65-.51Z"/>
      <path class="cls-1" d="m132.74,130.3l.03-.52v-4.1c0-.36-.16-.33-.72-.16v-.05l1.58-.73-.07.35v1.11h1.04l-.04.21h-1v3.81l1.04-.03v.03l-1.04.29h-.18l-.64-.21Z"/>
      <path class="cls-1" d="m140.21,130.45v.03l-1.34-.27s0,0,0,0c-.28.15-.62.23-1.02.23-1.2,0-2.07-.73-2.07-1.98s.88-2.31,2.67-2.31c.55,0,1,.1,1.43.32v3.2c0,.46.08.61.34.78Zm-1.86-.26c.34,0,.54-.11.71-.3,0-.09.02-.2.02-.33v-2.77c-.26-.28-.59-.47-1.07-.47-.89,0-1.4.66-1.4,1.68,0,1.23.75,2.2,1.74,2.2Z"/>
      <path class="cls-1" d="m146.12,128.18c0,1.24-.85,2.25-2.69,2.25-.42,0-1.08-.05-1.84-.29h0c.29-.07.41-.22.41-.78v-4.66c0-.34-.16-.3-.7-.14v-.05l1.53-.72-.04.34v2.35c.28-.2.69-.33,1.21-.33,1.32,0,2.11.83,2.11,2.03Zm-.84.47c0-1.32-.65-2.3-1.64-2.3-.34,0-.63.12-.84.3v3.21c.28.24.63.4,1.12.4.81,0,1.36-.41,1.36-1.61Z"/>
      <path class="cls-1" d="m149.14,130.34v.03h-1.36l.08-.53v-5.14c0-.34-.16-.3-.7-.14v-.05l1.53-.72-.04.34v5.41c0,.46.06.71.49.8Z"/>
      <path class="cls-1" d="m150.76,129.78v-3.3c-.12-.08-.34-.14-.52-.16v-.03l1.36-.13-.04.64v2.78c0,.46.08.63.34.8h-1.18l.05-.59Zm-.15-5.02c0-.28.22-.49.5-.49s.49.21.49.49-.22.5-.49.5-.5-.21-.5-.5Z"/>
      <path class="cls-1" d="m153.33,129.93l.48-.8h.02c0,.75.81,1.18,1.48,1.18.59,0,.79-.34.79-.74,0-.57-.4-.79-1.08-.9-1.33-.21-1.59-.84-1.59-1.31,0-.77.72-1.21,1.64-1.21.64,0,1.23.21,1.57.49l-.54.81h-.02c.03-.75-.73-1.17-1.32-1.17s-.72.39-.72.71c0,.61.59.78,1.14.87,1.3.21,1.53.79,1.53,1.25,0,.77-.65,1.33-1.72,1.33-.68,0-1.29-.22-1.65-.51Z"/>
      <path class="cls-1" d="m161.53,129.78v-2.05c0-.98-.48-1.21-.93-1.21-.55,0-.96.34-1.4.63v2.39c0,.46.06.71.49.8v.03h-1.36l.08-.53v-5.14c0-.34-.16-.3-.7-.14v-.05l1.53-.72-.04.34v2.83c.46-.31,1.13-.81,1.89-.81.56,0,1.23.27,1.23,1.57v1.86c0,.46.08.63.34.8h-1.18l.05-.59Z"/>
      <path class="cls-1" d="m168.07,129.55c-.26.48-.96.89-1.84.89-1.2,0-2.18-.75-2.18-2.05,0-1.38,1.14-2.24,2.38-2.24,1.79,0,1.99,1.83.91,1.83h-2.46c0,1.18.68,2.07,1.71,2.07.46,0,1.16-.17,1.43-.54l.04.03Zm-3.18-1.7l2.12-.03c.53,0,.24-1.51-.88-1.51-.7,0-1.2.57-1.24,1.54Z"/>
      <path class="cls-1" d="m173.98,130.45v.03l-1.34-.27s0,0,0,0c-.28.15-.62.23-1.02.23-1.2,0-2.07-.73-2.07-1.98s.88-2.31,2.67-2.31c.22,0,.44.02.64.05v-1.5c0-.34-.16-.3-.7-.14v-.05l1.53-.72-.04.34v5.54c0,.46.08.61.33.78Zm-1.86-.26c.33,0,.54-.11.71-.3,0-.09.02-.2.02-.33v-2.77c-.26-.28-.59-.47-1.07-.47-.89,0-1.4.66-1.4,1.68,0,1.23.75,2.2,1.74,2.2Z"/>
      <path class="cls-1" d="m182.6,128.46l-.27,2.11-.31-.19h-3.7l-.11-.52.93-.68c1.33-.97,2.41-1.93,2.41-3.11,0-.7-.39-1.65-1.42-1.65-1.13,0-1.38,1.14-1.14,2.3h-.03l-.87-1.5c.43-.4,1.43-.99,2.54-.99,1.21,0,1.82.67,1.82,1.51,0,1.39-1.63,2.4-3.19,3.54l-.44.32h2.22c1.09,0,1.24-.21,1.51-1.16l.04.02Z"/>
      <path class="cls-1" d="m189.21,127.39c0,2.02-1.02,3.11-2.5,3.11s-2.5-1.14-2.5-3.16,1.02-3.11,2.5-3.11,2.5,1.14,2.5,3.16Zm-.84.8c0-1.84-.71-3.81-2.05-3.81-.84,0-1.26.8-1.26,2.17,0,1.83.71,3.8,2.05,3.8.84,0,1.27-.8,1.27-2.16Z"/>
      <path class="cls-1" d="m195.15,128.46l-.27,2.11-.31-.19h-3.7l-.11-.52.93-.68c1.33-.97,2.41-1.93,2.41-3.11,0-.7-.39-1.65-1.42-1.65-1.13,0-1.38,1.14-1.14,2.3h-.03l-.87-1.5c.43-.4,1.43-.99,2.54-.99,1.21,0,1.82.67,1.82,1.51,0,1.39-1.63,2.4-3.19,3.54l-.44.32h2.22c1.09,0,1.24-.21,1.51-1.16l.04.02Z"/>
      <path class="cls-1" d="m201.76,127.39c0,2.02-1.02,3.11-2.5,3.11s-2.5-1.14-2.5-3.16,1.02-3.11,2.5-3.11,2.5,1.14,2.5,3.16Zm-.84.8c0-1.84-.71-3.81-2.05-3.81-.84,0-1.26.8-1.26,2.17,0,1.83.71,3.8,2.05,3.8.84,0,1.27-.8,1.27-2.16Z"/>
    </g>
    <rect class="cls-1" x="24.48" y="107" width="273.08" height=".5"/>
    <g id="Anderson_Wealth_Management_-_Oultines" data-name="Anderson Wealth Management - Oultines">
      <path class="cls-1" d="m26.22,96.98h-1.66l3.43-9.6h1.76l3.43,9.6h-1.66l-.7-2.1h-3.89l-.72,2.1Zm2.65-7.89l-1.47,4.39h2.94l-1.47-4.39Z"/>
      <path class="cls-1" d="m37.71,96.98h-1.6v-9.6h1.94l4.06,7.4v-7.4h1.58v9.6h-1.92l-4.06-7.4v7.4Z"/>
      <path class="cls-1" d="m47.42,96.98v-9.6h2.75c1.61,0,2.84.42,3.7,1.25.85.83,1.28,2.02,1.28,3.56s-.43,2.72-1.29,3.55-2.09,1.25-3.7,1.25h-2.74Zm2.73-1.43c1.06,0,1.9-.25,2.5-.76.6-.51.91-1.37.91-2.6,0-1.16-.3-2.01-.9-2.55s-1.44-.82-2.51-.82h-1.13v6.73h1.13Z"/>
      <path class="cls-1" d="m64.88,96.98h-6.35v-9.6h6.35v1.43h-4.75v2.64h4.23v1.42h-4.23v2.67h4.75v1.43Z"/>
      <path class="cls-1" d="m75.43,96.98h-1.72l-1.58-3.91h-2.29v3.91h-1.6v-9.6h3.96c.94,0,1.68.23,2.22.7s.81,1.17.81,2.11c0,.63-.14,1.16-.41,1.6-.27.44-.66.77-1.16,1l1.77,4.19Zm-5.6-5.31h2.15c.54,0,.96-.12,1.25-.37.28-.25.43-.6.43-1.06s-.15-.81-.43-1.06-.7-.37-1.24-.37h-2.15v2.86Z"/>
      <path class="cls-1" d="m80.52,96.82c-.59-.22-1.09-.57-1.5-1.04-.41-.48-.65-1.09-.74-1.84h1.62c.14.65.45,1.12.91,1.41s1,.43,1.6.43,1.04-.12,1.38-.37c.34-.24.52-.6.52-1.08,0-.35-.11-.63-.32-.84-.21-.21-.48-.37-.8-.47-.32-.11-.76-.22-1.32-.35-.7-.15-1.26-.31-1.7-.46s-.81-.42-1.11-.77c-.31-.35-.46-.83-.46-1.45,0-.58.14-1.08.43-1.49s.68-.73,1.18-.94c.5-.21,1.07-.32,1.7-.32.96,0,1.78.25,2.47.74.69.49,1.11,1.22,1.26,2.19h-1.6c-.13-.53-.38-.92-.77-1.18-.39-.26-.85-.38-1.4-.38s-.93.11-1.23.33c-.3.22-.45.52-.45.92,0,.31.1.56.3.74.2.18.45.33.75.42s.71.2,1.23.32c.74.16,1.33.33,1.79.5.45.17.84.45,1.16.83s.48.9.48,1.57c0,.9-.31,1.61-.92,2.13-.62.52-1.48.79-2.6.79-.66,0-1.29-.11-1.88-.33Z"/>
      <path class="cls-1" d="m90.99,96.47c-.69-.45-1.2-1.05-1.54-1.8-.34-.75-.51-1.58-.51-2.5s.17-1.74.51-2.49c.34-.75.85-1.34,1.54-1.79s1.53-.67,2.54-.67,1.84.22,2.53.67c.69.44,1.21,1.04,1.55,1.79.34.75.51,1.58.51,2.48s-.17,1.75-.51,2.5c-.34.75-.86,1.35-1.55,1.8-.69.45-1.54.67-2.53.67s-1.85-.22-2.54-.67Zm4.71-1.73c.52-.65.77-1.5.77-2.57s-.26-1.91-.77-2.55-1.24-.97-2.17-.97c-.61,0-1.14.15-1.58.45-.44.3-.78.71-1.01,1.25-.23.53-.35,1.14-.35,1.83s.12,1.31.35,1.84.57.95,1.01,1.25c.44.3.97.45,1.58.45.93,0,1.65-.32,2.17-.97Z"/>
      <path class="cls-1" d="m103.09,96.98h-1.6v-9.6h1.94l4.06,7.4v-7.4h1.58v9.6h-1.92l-4.06-7.4v7.4Z"/>
      <path class="cls-1" d="m122.32,96.98h-2.24l-2.63-9.6h1.67l2.11,7.96,1.97-7.96h1.9l1.99,7.97,2.1-7.97h1.67l-2.62,9.6h-2.25l-1.84-7.52-1.85,7.52Z"/>
      <path class="cls-1" d="m140.25,96.98h-6.35v-9.6h6.35v1.43h-4.75v2.64h4.23v1.42h-4.23v2.67h4.75v1.43Z"/>
      <path class="cls-1" d="m144.49,96.98h-1.66l3.43-9.6h1.76l3.43,9.6h-1.66l-.7-2.1h-3.89l-.72,2.1Zm2.65-7.89l-1.47,4.39h2.94l-1.47-4.39Z"/>
      <path class="cls-1" d="m160.14,96.98h-5.75v-9.6h1.6v8.16h4.15v1.43Z"/>
      <path class="cls-1" d="m165.56,96.98h-1.6v-8.16h-3.02v-1.43h7.66v1.43h-3.04v8.16Z"/>
      <path class="cls-1" d="m173.16,96.98h-1.6v-9.6h1.6v4.08h4.34v-4.08h1.6v9.6h-1.6v-4.1h-4.34v4.1Z"/>
      <path class="cls-1" d="m189.77,96.98h-1.6v-9.6h2.7l2.18,7.66,2.18-7.66h2.7v9.6h-1.6v-8.46l-2.5,8.46h-1.56l-2.5-8.4v8.4Z"/>
      <path class="cls-1" d="m202.54,96.98h-1.66l3.43-9.6h1.76l3.43,9.6h-1.66l-.71-2.1h-3.89l-.72,2.1Zm2.65-7.89l-1.47,4.39h2.94l-1.47-4.39Z"/>
      <path class="cls-1" d="m214.03,96.98h-1.6v-9.6h1.94l4.06,7.4v-7.4h1.58v9.6h-1.92l-4.06-7.4v7.4Z"/>
      <path class="cls-1" d="m224.62,96.98h-1.66l3.43-9.6h1.76l3.43,9.6h-1.66l-.7-2.1h-3.89l-.72,2.1Zm2.65-7.89l-1.47,4.39h2.94l-1.47-4.39Z"/>
      <path class="cls-1" d="m235.89,96.47c-.7-.45-1.21-1.05-1.55-1.8-.34-.75-.51-1.57-.51-2.47s.17-1.72.51-2.47c.34-.75.86-1.35,1.55-1.8s1.55-.68,2.57-.68c1.16,0,2.1.27,2.82.81.72.54,1.21,1.28,1.44,2.22h-1.77c-.18-.51-.48-.91-.9-1.19-.42-.28-.96-.42-1.6-.42s-1.19.16-1.64.47c-.44.31-.78.73-1,1.26-.22.53-.33,1.13-.33,1.78s.12,1.29.35,1.82c.23.54.58.96,1.04,1.27.46.31,1.02.46,1.68.46.82,0,1.47-.22,1.96-.67.48-.44.73-1.07.74-1.89h-2.18v-1.35h3.76v5.16h-1.46v-1.18c-.32.46-.74.8-1.25,1.02-.52.22-1.07.33-1.65.33-1.02,0-1.88-.23-2.58-.68Z"/>
      <path class="cls-1" d="m252.72,96.98h-6.35v-9.6h6.35v1.43h-4.75v2.64h4.23v1.42h-4.23v2.67h4.75v1.43Z"/>
      <path class="cls-1" d="m257.67,96.98h-1.6v-9.6h2.7l2.18,7.66,2.18-7.66h2.7v9.6h-1.6v-8.46l-2.5,8.46h-1.56l-2.5-8.4v8.4Z"/>
      <path class="cls-1" d="m275.91,96.98h-6.35v-9.6h6.35v1.43h-4.75v2.64h4.23v1.42h-4.23v2.67h4.75v1.43Z"/>
      <path class="cls-1" d="m280.87,96.98h-1.6v-9.6h1.94l4.06,7.4v-7.4h1.58v9.6h-1.92l-4.06-7.4v7.4Z"/>
      <path class="cls-1" d="m294.45,96.98h-1.6v-8.16h-3.02v-1.43h7.66v1.43h-3.04v8.16Z"/>
    </g>
    <path class="cls-1" d="m177.56,26.1c-.37-8.27-7.2-14.9-15.56-14.9s-15.19,6.63-15.55,14.9c-8.27.37-14.9,7.19-14.9,15.55s6.63,15.19,14.9,15.56c.37,8.27,7.2,14.89,15.55,14.89s15.19-6.63,15.56-14.89c8.27-.37,14.89-7.2,14.89-15.56s-6.62-15.19-14.89-15.55Zm-31.15,28.69h0c-6.52-.36-11.79-5.47-12.37-11.93h12.37v11.93Zm0-14.35h-12.37c.59-6.44,5.86-11.56,12.37-11.93h0v11.93Zm16.8-26.75c6.45.58,11.57,5.86,11.93,12.37h-11.93v-12.37Zm-2.41,0v12.37h-11.93c.35-6.52,5.47-11.79,11.93-12.37Zm-11.99,14.79h11.97v3.17c-.29,1.44-.99,3.5-2.73,5.4-2.13,2.32-4.68,3.13-6.08,3.41h-3.17v-11.97Zm11.97,41.15h0c-6.44-.59-11.56-5.86-11.93-12.38h11.93v12.38Zm.01-14.8h-11.96v-11.96h3.13c1.46.37,3.57,1.18,5.48,3.02,2.17,2.08,3.02,4.48,3.35,5.81v3.13Zm-1.68-10.68c-1.11-1.07-2.28-1.85-3.38-2.42,1.34-.64,2.79-1.61,4.12-3.04,1.02-1.11,1.75-2.28,2.27-3.39.71,1.31,1.7,2.73,3.12,4.02.99.91,2.11,1.69,3.3,2.32-1.28.64-2.64,1.56-3.92,2.87-1.14,1.2-1.99,2.44-2.6,3.61-.64-1.29-1.57-2.67-2.91-3.96Zm4.09,25.48v-12.38h11.93c-.36,6.52-5.47,11.79-11.93,12.38Zm11.96-14.79h-11.95v-3.12c.4-1.47,1.27-3.59,3.14-5.51,1.96-2.01,4.15-2.91,5.69-3.32h3.12v11.95Zm.01-14.37h-3.12c-1.38-.41-3.35-1.24-5.18-2.92-2.18-2.01-3.19-4.31-3.66-5.93v-3.11h11.96v11.96Zm2.41-11.94c6.52.35,11.79,5.47,12.38,11.92h-12.38v-11.92Zm0,26.26v-11.93h12.38c-.59,6.45-5.86,11.57-12.38,11.93Z"/>
  </g>
</svg>