<?xml version="1.0" encoding="UTF-8"?>
<svg id="Layer_1" data-name="Layer 1" xmlns="http://www.w3.org/2000/svg" viewBox="0 0 383.12 383.31">
  <defs>
    <style>
      .cls-1 {
        fill: #c8b287;
      }

      .cls-2 {
        fill: #3a3a3a;
      }
    </style>
  </defs>
  <polygon class="cls-1" points="54.49 159.19 136.12 78.25 179.32 120.08 251.61 48.76 305.44 102.93 354.1 54.33 352.75 182.62 54.53 186.79 54.49 159.19"/>
  <g>
    <path class="cls-2" d="m293.47,241.14c12.74-6.52,25.22-13.02,37.81-19.32,12.43-6.22,26.42-3.39,34.95,6.84,7.92,9.5,6.41,21.22-3.86,28.14-28.95,19.5-57.97,38.92-86.96,58.37-9.53,6.39-19.21,12.56-28.54,19.22-15.78,11.25-33.08,14.59-52.15,12.1-23.61-3.08-47.33-5.35-71-7.97-9.91-1.09-19.14,2.32-28.92,4.06.72,3.54,1.35,6.69,2.01,9.83,1.15,5.52-.37,7.98-5.86,9.18-14.61,3.18-29.23,6.32-43.85,9.44-4.69,1-7.34-.76-8.36-5.58-8-38.03-15.98-76.07-23.97-114.11-.9-4.27-1.84-8.52-2.7-12.8-.87-4.33.78-7.02,5.14-7.98,14.84-3.28,29.69-6.52,44.57-9.65,5.1-1.07,7.4.6,8.55,5.73,1.16,5.21,2.26,10.43,3.45,15.94,4.06-2.17,7.74-4.41,11.63-6.18,21.98-9.97,44.01-9.89,65.74.56,11.45,5.5,22.59,11.67,33.74,17.76,6.73,3.68,13.12,3.7,19.9.14,14.01-7.36,28.41-14.01,42.17-21.8,16.8-9.51,34.58-6.68,46.52,8.07Zm-201.18,89.65c1.98-.39,3.67-.71,5.36-1.08,8.77-1.91,17.5-4.19,26.61-3.19,23.68,2.6,47.41,4.84,71.02,7.95,16.77,2.21,31.81-.6,45.74-10.51,13.71-9.76,27.9-18.84,41.88-28.22,24.03-16.12,48.06-32.23,72.08-48.37,5.27-3.54,5.63-7.46,1.2-11.99-5.03-5.14-12.52-6.43-19.31-3.02-12.36,6.22-24.66,12.54-36.91,18.97-1.18.62-2.37,2.23-2.56,3.53-.88,6.13-3.92,10.71-9.17,13.83-22.51,13.37-44.96,26.83-67.6,39.99-13.2,7.67-27.64,10.23-42.6,7.26-14.65-2.91-29.13-6.73-43.68-10.16-6.63-1.56-13.25-3.15-20.03-4.77.99-4.05,1.86-7.63,2.78-11.4,1.27.21,2.24.32,3.19.54,18.67,4.45,37.32,8.95,56,13.36,13.56,3.2,26.61,1.67,38.68-5.36,22.29-13,44.45-26.24,66.63-39.42,4.51-2.68,5.14-6.06,2.2-10.34-6.09-8.85-17.44-11.59-27.61-6.44-15.45,7.83-30.86,15.75-46.24,23.72-10.34,5.36-20.48,5.23-30.71-.37-9.95-5.45-19.97-10.76-30.05-15.95-24.03-12.38-47.23-10.84-69.66,4.21-2.33,1.57-3,3.06-2.39,5.8,2.82,12.77,5.43,25.6,8.13,38.4,2.31,10.95,4.65,21.89,7.02,33.05ZM24.86,241.12c8.24,39.26,16.39,78.05,24.6,117.11,11.8-2.54,23.08-4.96,34.76-7.47-8.25-39.24-16.42-78.15-24.62-117.14-11.76,2.54-22.95,4.95-34.74,7.5Z"/>
    <path class="cls-2" d="m167.7,99.28c13.99-14.02,57.89-57.99,66.19-66.27,4.19-4.18,6.91-4.19,11.12.02,15.97,15.96,31.92,31.95,47.44,47.5,19.02-19.01,37.9-37.87,56.51-56.47h-13.41v-11.99c10.23,0,20.43-.18,30.61.11,3.22.09,5.02,2.68,5.04,5.97.06,9.73.02,19.45.02,29.47h-11.93v-14.99c-1.59,1.48-40.92,40.69-59.63,59.39-5.21,5.21-7.42,5.18-12.72-.12-15.7-15.7-31.4-31.41-47.39-47.41-1.09,1.02-2.07,1.9-3.01,2.83-20.92,20.91-41.83,41.82-62.75,62.73-5.09,5.09-7.39,5.09-12.45.03-10.86-10.85-21.71-21.71-32.57-32.55-.96-.95-1.95-1.87-2.94-2.82-26.49,26.49-52.83,52.83-79.29,79.29-2.98-3.26-5.54-6.07-8.32-9.12.43-.45,54.88-54.97,81.18-81.27,5.07-5.07,7.35-5.06,12.45.03,10.95,10.94,34.61,34.49,35.84,35.64Z"/>
    <path class="cls-2" d="m317.31,207.86c0,5.65-2.05,7.72-7.6,7.75-6.99.03-13.98.04-20.97,0-5.17-.03-7.35-2.13-7.36-7.23-.03-29.07-.02-58.14,0-87.21,0-5.18,2.13-7.33,7.22-7.36,7.11-.04,14.23-.04,21.34,0,5.3.03,7.36,2.14,7.37,7.59.02,14.47.02,72.12,0,86.46Zm-23.89-4.46h11.66v-77.33h-11.66v77.33Z"/>
    <path class="cls-2" d="m209.47,207.75c0,5.86-2,7.85-7.86,7.86-6.99.02-13.98.04-20.97,0-4.89-.04-7.09-2.21-7.09-7.11-.03-25.2-.03-50.41,0-75.61,0-4.9,2.2-7.06,7.1-7.1,7.24-.05,14.48-.05,21.71,0,4.89.03,7.08,2.21,7.1,7.1.04,12.6.03,62.51.01,74.86Zm-23.7-69.82v65.41h11.54v-65.41h-11.54Z"/>
    <path class="cls-2" d="m227.46,151.18c.02-5.35,2.11-7.41,7.52-7.43,7.11-.03,14.23-.05,21.34,0,4.87.04,7.05,2.22,7.06,7.14.03,19.21.04,38.43,0,57.64,0,4.86-2.23,7.03-7.15,7.06-7.24.05-14.48.05-21.71,0-4.87-.04-7.03-2.23-7.05-7.15-.04-9.73-.04-47.91,0-57.27Zm12.13,52.26h11.6v-47.46h-11.6v47.46Z"/>
    <path class="cls-2" d="m119.62,191.29c0-5.49-.04-10.98.01-16.47.05-4.9,2.2-7.07,7.09-7.1,7.24-.05,14.48-.05,21.71,0,4.89.03,7.09,2.2,7.11,7.09.05,11.23.05,22.46,0,33.68-.02,4.89-2.22,7.07-7.1,7.11-7.24.05-14.48.05-21.71,0-4.89-.03-7.06-2.21-7.1-7.1-.05-5.74-.01-11.48-.01-17.22Zm12.14,12.16h11.6v-23.5h-11.6v23.5Z"/>
    <path class="cls-2" d="m38.87,250.35c4.04-.86,7.65-1.62,11.61-2.47.84,3.82,1.65,7.52,2.55,11.61-3.87.83-7.56,1.63-11.67,2.52-.82-3.87-1.61-7.56-2.48-11.67Z"/>
  </g>
</svg>