<?xml version="1.0" encoding="utf-8"?>
<!-- Generator: Adobe Illustrator 27.5.0, SVG Export Plug-In . SVG Version: 6.00 Build 0)  -->
<svg version="1.1" xmlns="http://www.w3.org/2000/svg" xmlns:xlink="http://www.w3.org/1999/xlink" x="0px" y="0px"
	 viewBox="0 0 324 144" style="enable-background:new 0 0 324 144;" xml:space="preserve">
<style type="text/css">
	.st0{display:none;}
	.st1{display:inline;}
	.st2{font-family:'OpenSauceOne-SemiBold';}
	.st3{font-size:12.5773px;}
	.st4{letter-spacing:1;}
	.st5{font-family:'RoxboroughCF-Regular';}
	.st6{font-size:8.6055px;}
	.st7{fill:#242424;}
</style>
<g id="Type" class="st0">
	<text id="Anderson_Wealth_Management_-_Type" transform="matrix(1 0 0 1 24.444 96.9837)" class="st1 st2 st3 st4">Anderson Wealth Management</text>
	<text id="Established_2020_-_Type" transform="matrix(1 0 0 1 120.9787 130.3763)" class="st1 st5 st6">Established 2020</text>
</g>
<g id="Outlines">
	<g id="Logo">
		<g id="Established_2020_-_Outlines">
			<path class="st7" d="M126.3,128.7l-0.4,1.7l-0.1,0.2l-0.3-0.2h-4.4v0c0.4-0.1,0.7-0.3,0.7-0.6v-4.9c0-0.3-0.3-0.4-0.7-0.4v0h4.6
				l0.3,1.4l0,0c-0.6-0.8-0.9-1.2-1.9-1.2h-1.4v2.8h1.2c0.9,0,1.2-0.2,1.4-0.9v1.9c-0.2-0.6-0.5-0.9-1.4-0.9h-1.2v2.8h1.6
				C125.2,130.2,125.6,129.7,126.3,128.7L126.3,128.7z"/>
			<path class="st7" d="M127.6,129.9l0.5-0.8h0c0,0.7,0.8,1.2,1.5,1.2c0.6,0,0.8-0.3,0.8-0.7c0-0.6-0.4-0.8-1.1-0.9
				c-1.3-0.2-1.6-0.8-1.6-1.3c0-0.8,0.7-1.2,1.6-1.2c0.6,0,1.2,0.2,1.6,0.5l-0.5,0.8h0c0-0.7-0.7-1.2-1.3-1.2
				c-0.6,0-0.7,0.4-0.7,0.7c0,0.6,0.6,0.8,1.1,0.9c1.3,0.2,1.5,0.8,1.5,1.2c0,0.8-0.7,1.3-1.7,1.3
				C128.6,130.4,128,130.2,127.6,129.9z"/>
			<path class="st7" d="M132.7,130.3l0-0.5v-4.1c0-0.4-0.2-0.3-0.7-0.2v-0.1l1.6-0.7l-0.1,0.4v1.1h1l0,0.2h-1v3.8l1,0v0l-1,0.3h-0.2
				L132.7,130.3z"/>
			<path class="st7" d="M140.2,130.5L140.2,130.5l-1.3-0.2c0,0,0,0,0,0c-0.3,0.1-0.6,0.2-1,0.2c-1.2,0-2.1-0.7-2.1-2
				c0-1.2,0.9-2.3,2.7-2.3c0.6,0,1,0.1,1.4,0.3v3.2C139.9,130.1,140,130.3,140.2,130.5z M138.4,130.2c0.3,0,0.5-0.1,0.7-0.3
				c0-0.1,0-0.2,0-0.3v-2.8c-0.3-0.3-0.6-0.5-1.1-0.5c-0.9,0-1.4,0.7-1.4,1.7C136.6,129.2,137.4,130.2,138.4,130.2z"/>
			<path class="st7" d="M146.1,128.2c0,1.2-0.9,2.3-2.7,2.3c-0.4,0-1.1-0.1-1.8-0.3v0c0.3-0.1,0.4-0.2,0.4-0.8v-4.7
				c0-0.3-0.2-0.3-0.7-0.1v-0.1l1.5-0.7l0,0.3v2.3c0.3-0.2,0.7-0.3,1.2-0.3C145.3,126.2,146.1,127,146.1,128.2z M145.3,128.7
				c0-1.3-0.7-2.3-1.6-2.3c-0.3,0-0.6,0.1-0.8,0.3v3.2c0.3,0.2,0.6,0.4,1.1,0.4C144.7,130.3,145.3,129.9,145.3,128.7z"/>
			<path class="st7" d="M149.1,130.3L149.1,130.3l-1.4,0l0.1-0.5v-5.1c0-0.3-0.2-0.3-0.7-0.1v-0.1l1.5-0.7l0,0.3v5.4
				C148.7,130,148.7,130.2,149.1,130.3z"/>
			<path class="st7" d="M150.8,129.8v-3.3c-0.1-0.1-0.3-0.1-0.5-0.2v0l1.4-0.1l0,0.6v2.8c0,0.5,0.1,0.6,0.3,0.8h-1.2L150.8,129.8z
				 M150.6,124.8c0-0.3,0.2-0.5,0.5-0.5c0.3,0,0.5,0.2,0.5,0.5c0,0.3-0.2,0.5-0.5,0.5C150.8,125.3,150.6,125,150.6,124.8z"/>
			<path class="st7" d="M153.3,129.9l0.5-0.8h0c0,0.7,0.8,1.2,1.5,1.2c0.6,0,0.8-0.3,0.8-0.7c0-0.6-0.4-0.8-1.1-0.9
				c-1.3-0.2-1.6-0.8-1.6-1.3c0-0.8,0.7-1.2,1.6-1.2c0.6,0,1.2,0.2,1.6,0.5l-0.5,0.8h0c0-0.7-0.7-1.2-1.3-1.2
				c-0.6,0-0.7,0.4-0.7,0.7c0,0.6,0.6,0.8,1.1,0.9c1.3,0.2,1.5,0.8,1.5,1.2c0,0.8-0.7,1.3-1.7,1.3
				C154.3,130.4,153.7,130.2,153.3,129.9z"/>
			<path class="st7" d="M161.5,129.8v-2c0-1-0.5-1.2-0.9-1.2c-0.6,0-1,0.3-1.4,0.6v2.4c0,0.5,0.1,0.7,0.5,0.8v0h-1.4l0.1-0.5v-5.1
				c0-0.3-0.2-0.3-0.7-0.1v-0.1l1.5-0.7l0,0.3v2.8c0.5-0.3,1.1-0.8,1.9-0.8c0.6,0,1.2,0.3,1.2,1.6v1.9c0,0.5,0.1,0.6,0.3,0.8h-1.2
				L161.5,129.8z"/>
			<path class="st7" d="M168.1,129.5c-0.3,0.5-1,0.9-1.8,0.9c-1.2,0-2.2-0.7-2.2-2c0-1.4,1.1-2.2,2.4-2.2c1.8,0,2,1.8,0.9,1.8h-2.5
				c0,1.2,0.7,2.1,1.7,2.1C167.1,130.1,167.8,129.9,168.1,129.5L168.1,129.5z M164.9,127.8l2.1,0c0.5,0,0.2-1.5-0.9-1.5
				C165.4,126.3,164.9,126.9,164.9,127.8z"/>
			<path class="st7" d="M174,130.5L174,130.5l-1.3-0.2c0,0,0,0,0,0c-0.3,0.1-0.6,0.2-1,0.2c-1.2,0-2.1-0.7-2.1-2
				c0-1.2,0.9-2.3,2.7-2.3c0.2,0,0.4,0,0.6,0.1v-1.5c0-0.3-0.2-0.3-0.7-0.1v-0.1l1.5-0.7l0,0.3v5.5
				C173.6,130.1,173.7,130.3,174,130.5z M172.1,130.2c0.3,0,0.5-0.1,0.7-0.3c0-0.1,0-0.2,0-0.3v-2.8c-0.3-0.3-0.6-0.5-1.1-0.5
				c-0.9,0-1.4,0.7-1.4,1.7C170.4,129.2,171.1,130.2,172.1,130.2z"/>
			<path class="st7" d="M182.6,128.5l-0.3,2.1l-0.3-0.2h-3.7l-0.1-0.5l0.9-0.7c1.3-1,2.4-1.9,2.4-3.1c0-0.7-0.4-1.7-1.4-1.7
				c-1.1,0-1.4,1.1-1.1,2.3h0l-0.9-1.5c0.4-0.4,1.4-1,2.5-1c1.2,0,1.8,0.7,1.8,1.5c0,1.4-1.6,2.4-3.2,3.5l-0.4,0.3h2.2
				C182.1,129.6,182.3,129.4,182.6,128.5L182.6,128.5z"/>
			<path class="st7" d="M189.2,127.4c0,2-1,3.1-2.5,3.1c-1.5,0-2.5-1.1-2.5-3.2c0-2,1-3.1,2.5-3.1
				C188.2,124.2,189.2,125.4,189.2,127.4z M188.4,128.2c0-1.8-0.7-3.8-2-3.8c-0.8,0-1.3,0.8-1.3,2.2c0,1.8,0.7,3.8,2,3.8
				C187.9,130.4,188.4,129.5,188.4,128.2z"/>
			<path class="st7" d="M195.1,128.5l-0.3,2.1l-0.3-0.2h-3.7l-0.1-0.5l0.9-0.7c1.3-1,2.4-1.9,2.4-3.1c0-0.7-0.4-1.7-1.4-1.7
				c-1.1,0-1.4,1.1-1.1,2.3h0l-0.9-1.5c0.4-0.4,1.4-1,2.5-1c1.2,0,1.8,0.7,1.8,1.5c0,1.4-1.6,2.4-3.2,3.5l-0.4,0.3h2.2
				C194.7,129.6,194.8,129.4,195.1,128.5L195.1,128.5z"/>
			<path class="st7" d="M201.8,127.4c0,2-1,3.1-2.5,3.1c-1.5,0-2.5-1.1-2.5-3.2c0-2,1-3.1,2.5-3.1
				C200.7,124.2,201.8,125.4,201.8,127.4z M200.9,128.2c0-1.8-0.7-3.8-2-3.8c-0.8,0-1.3,0.8-1.3,2.2c0,1.8,0.7,3.8,2,3.8
				C200.5,130.4,200.9,129.5,200.9,128.2z"/>
		</g>
		<rect x="24.5" y="107" class="st7" width="273.1" height="0.5"/>
		<g id="Anderson_Wealth_Management_-_Oultines">
			<path class="st7" d="M26.2,97h-1.7l3.4-9.6h1.8l3.4,9.6h-1.7l-0.7-2.1h-3.9L26.2,97z M28.9,89.1l-1.5,4.4h2.9L28.9,89.1z"/>
			<path class="st7" d="M37.7,97h-1.6v-9.6h1.9l4.1,7.4v-7.4h1.6V97h-1.9l-4.1-7.4V97z"/>
			<path class="st7" d="M47.4,97v-9.6h2.8c1.6,0,2.8,0.4,3.7,1.2c0.9,0.8,1.3,2,1.3,3.6c0,1.5-0.4,2.7-1.3,3.5S51.8,97,50.2,97H47.4
				z M50.2,95.5c1.1,0,1.9-0.3,2.5-0.8c0.6-0.5,0.9-1.4,0.9-2.6c0-1.2-0.3-2-0.9-2.6s-1.4-0.8-2.5-0.8H49v6.7H50.2z"/>
			<path class="st7" d="M64.9,97h-6.4v-9.6h6.4v1.4h-4.8v2.6h4.2v1.4h-4.2v2.7h4.8V97z"/>
			<path class="st7" d="M75.4,97h-1.7l-1.6-3.9h-2.3V97h-1.6v-9.6h4c0.9,0,1.7,0.2,2.2,0.7s0.8,1.2,0.8,2.1c0,0.6-0.1,1.2-0.4,1.6
				c-0.3,0.4-0.7,0.8-1.2,1L75.4,97z M69.8,91.7H72c0.5,0,1-0.1,1.2-0.4c0.3-0.2,0.4-0.6,0.4-1.1s-0.1-0.8-0.4-1.1s-0.7-0.4-1.2-0.4
				h-2.2V91.7z"/>
			<path class="st7" d="M80.5,96.8c-0.6-0.2-1.1-0.6-1.5-1c-0.4-0.5-0.7-1.1-0.7-1.8h1.6c0.1,0.7,0.4,1.1,0.9,1.4s1,0.4,1.6,0.4
				c0.6,0,1-0.1,1.4-0.4c0.3-0.2,0.5-0.6,0.5-1.1c0-0.4-0.1-0.6-0.3-0.8c-0.2-0.2-0.5-0.4-0.8-0.5c-0.3-0.1-0.8-0.2-1.3-0.3
				c-0.7-0.2-1.3-0.3-1.7-0.5s-0.8-0.4-1.1-0.8c-0.3-0.4-0.5-0.8-0.5-1.4c0-0.6,0.1-1.1,0.4-1.5s0.7-0.7,1.2-0.9
				c0.5-0.2,1.1-0.3,1.7-0.3c1,0,1.8,0.2,2.5,0.7c0.7,0.5,1.1,1.2,1.3,2.2h-1.6c-0.1-0.5-0.4-0.9-0.8-1.2c-0.4-0.3-0.9-0.4-1.4-0.4
				c-0.5,0-0.9,0.1-1.2,0.3c-0.3,0.2-0.5,0.5-0.5,0.9c0,0.3,0.1,0.6,0.3,0.7c0.2,0.2,0.4,0.3,0.7,0.4s0.7,0.2,1.2,0.3
				c0.7,0.2,1.3,0.3,1.8,0.5c0.5,0.2,0.8,0.4,1.2,0.8s0.5,0.9,0.5,1.6c0,0.9-0.3,1.6-0.9,2.1c-0.6,0.5-1.5,0.8-2.6,0.8
				C81.7,97.1,81.1,97,80.5,96.8z"/>
			<path class="st7" d="M91,96.5c-0.7-0.4-1.2-1-1.5-1.8c-0.3-0.8-0.5-1.6-0.5-2.5s0.2-1.7,0.5-2.5c0.3-0.7,0.9-1.3,1.5-1.8
				s1.5-0.7,2.5-0.7c1,0,1.8,0.2,2.5,0.7c0.7,0.4,1.2,1,1.5,1.8c0.3,0.8,0.5,1.6,0.5,2.5c0,0.9-0.2,1.7-0.5,2.5
				c-0.3,0.8-0.9,1.3-1.5,1.8c-0.7,0.4-1.5,0.7-2.5,0.7C92.5,97.1,91.7,96.9,91,96.5z M95.7,94.7c0.5-0.6,0.8-1.5,0.8-2.6
				c0-1.1-0.3-1.9-0.8-2.6s-1.2-1-2.2-1c-0.6,0-1.1,0.1-1.6,0.4c-0.4,0.3-0.8,0.7-1,1.2c-0.2,0.5-0.3,1.1-0.3,1.8
				c0,0.7,0.1,1.3,0.3,1.8s0.6,0.9,1,1.2c0.4,0.3,1,0.4,1.6,0.4C94.5,95.7,95.2,95.4,95.7,94.7z"/>
			<path class="st7" d="M103.1,97h-1.6v-9.6h1.9l4.1,7.4v-7.4h1.6V97h-1.9l-4.1-7.4V97z"/>
			<path class="st7" d="M122.3,97h-2.2l-2.6-9.6h1.7l2.1,8l2-8h1.9l2,8l2.1-8h1.7l-2.6,9.6H126l-1.8-7.5L122.3,97z"/>
			<path class="st7" d="M140.3,97h-6.4v-9.6h6.4v1.4h-4.8v2.6h4.2v1.4h-4.2v2.7h4.8V97z"/>
			<path class="st7" d="M144.5,97h-1.7l3.4-9.6h1.8l3.4,9.6h-1.7l-0.7-2.1h-3.9L144.5,97z M147.1,89.1l-1.5,4.4h2.9L147.1,89.1z"/>
			<path class="st7" d="M160.1,97h-5.7v-9.6h1.6v8.2h4.2V97z"/>
			<path class="st7" d="M165.6,97H164v-8.2h-3v-1.4h7.7v1.4h-3V97z"/>
			<path class="st7" d="M173.2,97h-1.6v-9.6h1.6v4.1h4.3v-4.1h1.6V97h-1.6v-4.1h-4.3V97z"/>
			<path class="st7" d="M189.8,97h-1.6v-9.6h2.7l2.2,7.7l2.2-7.7h2.7V97h-1.6v-8.5l-2.5,8.5h-1.6l-2.5-8.4V97z"/>
			<path class="st7" d="M202.5,97h-1.7l3.4-9.6h1.8l3.4,9.6h-1.7l-0.7-2.1h-3.9L202.5,97z M205.2,89.1l-1.5,4.4h2.9L205.2,89.1z"/>
			<path class="st7" d="M214,97h-1.6v-9.6h1.9l4.1,7.4v-7.4h1.6V97h-1.9l-4.1-7.4V97z"/>
			<path class="st7" d="M224.6,97H223l3.4-9.6h1.8l3.4,9.6h-1.7l-0.7-2.1h-3.9L224.6,97z M227.3,89.1l-1.5,4.4h2.9L227.3,89.1z"/>
			<path class="st7" d="M235.9,96.5c-0.7-0.5-1.2-1.1-1.6-1.8c-0.3-0.8-0.5-1.6-0.5-2.5s0.2-1.7,0.5-2.5c0.3-0.8,0.9-1.4,1.6-1.8
				s1.6-0.7,2.6-0.7c1.2,0,2.1,0.3,2.8,0.8c0.7,0.5,1.2,1.3,1.4,2.2h-1.8c-0.2-0.5-0.5-0.9-0.9-1.2c-0.4-0.3-1-0.4-1.6-0.4
				c-0.6,0-1.2,0.2-1.6,0.5c-0.4,0.3-0.8,0.7-1,1.3c-0.2,0.5-0.3,1.1-0.3,1.8c0,0.7,0.1,1.3,0.4,1.8c0.2,0.5,0.6,1,1,1.3
				c0.5,0.3,1,0.5,1.7,0.5c0.8,0,1.5-0.2,2-0.7c0.5-0.4,0.7-1.1,0.7-1.9h-2.2v-1.3h3.8V97h-1.5v-1.2c-0.3,0.5-0.7,0.8-1.3,1
				c-0.5,0.2-1.1,0.3-1.7,0.3C237.4,97.1,236.6,96.9,235.9,96.5z"/>
			<path class="st7" d="M252.7,97h-6.4v-9.6h6.4v1.4H248v2.6h4.2v1.4H248v2.7h4.8V97z"/>
			<path class="st7" d="M257.7,97h-1.6v-9.6h2.7L261,95l2.2-7.7h2.7V97h-1.6v-8.5l-2.5,8.5h-1.6l-2.5-8.4V97z"/>
			<path class="st7" d="M275.9,97h-6.4v-9.6h6.4v1.4h-4.8v2.6h4.2v1.4h-4.2v2.7h4.8V97z"/>
			<path class="st7" d="M280.9,97h-1.6v-9.6h1.9l4.1,7.4v-7.4h1.6V97h-1.9l-4.1-7.4V97z"/>
			<path class="st7" d="M294.5,97h-1.6v-8.2h-3v-1.4h7.7v1.4h-3V97z"/>
		</g>
		<path class="st7" d="M177.6,26.1c-0.4-8.3-7.2-14.9-15.6-14.9c-8.4,0-15.2,6.6-15.6,14.9c-8.3,0.4-14.9,7.2-14.9,15.6
			s6.6,15.2,14.9,15.6c0.4,8.3,7.2,14.9,15.6,14.9c8.4,0,15.2-6.6,15.6-14.9c8.3-0.4,14.9-7.2,14.9-15.6
			C192.5,33.3,185.8,26.5,177.6,26.1z M146.4,54.8L146.4,54.8c-6.5-0.4-11.8-5.5-12.4-11.9h0h12.4h0V54.8z M146.4,40.4L146.4,40.4
			H134h0c0.6-6.4,5.9-11.6,12.4-11.9h0V40.4z M163.2,13.7c6.5,0.6,11.6,5.9,11.9,12.4h-11.9V13.7z M160.8,13.7v12.4h-11.9
			C149.2,19.5,154.3,14.3,160.8,13.7z M148.8,28.5L148.8,28.5h12v3.2c-0.3,1.4-1,3.5-2.7,5.4c-2.1,2.3-4.7,3.1-6.1,3.4h-3.2V28.5z
			 M160.8,69.6L160.8,69.6L160.8,69.6c-6.4-0.6-11.6-5.9-11.9-12.4h0h11.9h0V69.6z M160.8,54.8h-12v-12h3.1c1.5,0.4,3.6,1.2,5.5,3
			c2.2,2.1,3,4.5,3.4,5.8V54.8z M159.1,44.1c-1.1-1.1-2.3-1.9-3.4-2.4c1.3-0.6,2.8-1.6,4.1-3c1-1.1,1.8-2.3,2.3-3.4
			c0.7,1.3,1.7,2.7,3.1,4c1,0.9,2.1,1.7,3.3,2.3c-1.3,0.6-2.6,1.6-3.9,2.9c-1.1,1.2-2,2.4-2.6,3.6C161.4,46.8,160.5,45.4,159.1,44.1
			z M163.2,69.6V57.2h11.9C174.8,63.8,169.7,69,163.2,69.6z M175.2,54.8h-11.9v-3.1c0.4-1.5,1.3-3.6,3.1-5.5c2-2,4.2-2.9,5.7-3.3
			h3.1V54.8z M175.2,40.5h-3.1v0c-1.4-0.4-3.3-1.2-5.2-2.9c-2.2-2-3.2-4.3-3.7-5.9v-3.1h12V40.5z M177.6,28.5
			c6.5,0.4,11.8,5.5,12.4,11.9h-12.4V28.5z M177.6,54.8V42.9H190C189.4,49.3,184.1,54.4,177.6,54.8z"/>
	</g>
</g>
</svg>
