<?xml version="1.0" encoding="utf-8"?>
<!-- Generator: Adobe Illustrator 27.5.0, SVG Export Plug-In . SVG Version: 6.00 Build 0)  -->
<svg version="1.1" xmlns="http://www.w3.org/2000/svg" xmlns:xlink="http://www.w3.org/1999/xlink" x="0px" y="0px"
	 viewBox="0 0 501.4 230.6" style="enable-background:new 0 0 501.4 230.6;" xml:space="preserve">
<style type="text/css">
	.st0{display:none;}
	.st1{display:inline;}
	.st2{fill:#9C9C9C;}
	.st3{fill:#FFFFFF;}
</style>
<g id="Layer_2" class="st0">
	<rect class="st1" width="501.4" height="230.7"/>
</g>
<g id="financial_horizons_logo">
	<path id="bottom_logo_sun" class="st2" d="M220.1,144.4c3.1,0,6.3,0.6,9.1,1.9c1.1-1.7,1.6-3.6,1.6-5.5c0-6-4.7-10.5-10.9-10.5
		s-10.9,4.5-10.9,10.5c0,2,0.6,4,1.7,5.6C213.7,145,216.9,144.3,220.1,144.4z"/>
	<ellipse id="top_logo_sun" class="st2" cx="368.3" cy="10.5" rx="10.9" ry="10.5"/>
	<path id="logo_type" class="st3" d="M69.8,113v1H43.6v-1c5.5-4.5,6.4-6.2,6.4-10.9V47h-27v55c0,4.7,1,6.4,6.4,10.9v1H3.4v-1
		c5.4-4.5,6.4-6.2,6.4-10.9V47H0v-3h9.8V31.1C9.8,17,18,9.8,37.7,9.8c8.2,0.2,16.4,0.8,24.5,1.9L63,22.3l-0.6,0.2
		c-16.4-8-19.9-9.6-25.8-9.6c-11.8,0-13.4,6.7-13.4,17.1v14h40.3v58.1C63.4,106.7,64.3,108.5,69.8,113z M147,113v1h-25.8v-1
		c5.1-4.5,6.1-6.2,6.1-10.9V65.5c0-9.5-4.2-16-14.9-16c-5.9,0-11.7,2.2-16,6.3v46.4c0,4.7,1,6.4,6.1,10.9v1H76.6v-1
		c5.4-4.5,6.4-6.3,6.4-10.9V57.5c0-5.1-0.8-6.9-6.7-12.5V44h19.5l0.5,9.6c4.3-5.6,11.2-11.2,22.3-11.2c13.8,0,22,8,22,21.5v38.2
		C140.6,106.7,141.5,108.5,147,113z M205.5,59.1v54.9h-13.2l-0.2-8c-3.7,5.4-10.4,9.6-19.2,9.6c-11.2,0-19.1-6.9-19.1-18.4
		c0-16,14.8-19.2,38.3-24.4v-16c0-7.5-2.9-11.4-9.5-11.4c-5.4,0-10.6,2.9-25.3,15.2l-0.8-0.3l0.8-11.5c8.7-3.5,18.9-6.3,27.6-6.3
		C198.1,42.4,205.5,48.2,205.5,59.1z M192.2,103.8V75.8c-18.8,3.8-24.5,7.9-24.5,18.9c0,9.5,3.7,14.4,11.6,14.4
		C184.1,109.2,188.8,107.3,192.2,103.8L192.2,103.8z M288.1,113v1h-25.8v-1c5.1-4.5,6.1-6.2,6.1-10.9V65.5c0-9.5-4.2-16-14.9-16
		c-5.9-0.1-11.7,2.2-16,6.3v46.4c0,4.7,1,6.4,6.1,10.9v1h-25.9v-1c5.4-4.5,6.4-6.2,6.4-10.9V57.5c0-5.1-0.8-6.9-6.7-12.5V44h19.6
		l0.5,9.6c4.3-5.6,11.2-11.2,22.3-11.2c13.8,0,22,8,22,21.5v38.2C281.6,106.7,282.6,108.5,288.1,113z M346.7,56.5
		c-13.3-9-17.5-11.2-22.6-11.2c-11.2,0-16,10.3-16,29.5c0,20.8,6.2,31.9,21.2,31.9c9,0,15.4-3.8,19.4-10.1l0.8,0.5
		c-3.7,11.7-12.5,18.4-25.5,18.4c-20,0-30.2-15.1-30.2-36.2c0-21.5,10.6-37.1,33.2-37.1c6.8,0.2,13.6,1,20.2,2.4l0.3,11.7
		L346.7,56.5z M383.3,113v1h-26.1v-1c5.5-4.5,6.4-6.2,6.4-10.9V57.5c0-5.1-0.8-6.9-6.7-12.5V44h20v58.1
		C376.9,106.7,377.8,108.5,383.3,113z M442.3,59.1v54.9h-13.2l-0.2-8c-3.7,5.4-10.4,9.6-19.2,9.6c-11.2,0-19.1-6.9-19.1-18.4
		c0-16,14.8-19.2,38.3-24.4v-16c0-7.5-2.9-11.4-9.5-11.4c-5.5,0-10.6,2.9-25.4,15.2l-0.8-0.3l0.8-11.5c8.7-3.5,18.9-6.3,27.6-6.3
		C434.9,42.4,442.3,48.2,442.3,59.1z M428.9,103.8V75.8c-18.8,3.8-24.5,7.9-24.5,18.9c0,9.5,3.7,14.4,11.5,14.4
		C420.8,109.2,425.5,107.3,428.9,103.8z M480.1,113v1h-26.1v-1c5.5-4.5,6.4-6.2,6.4-10.9V25.5c0-5.5-1-7.2-7.2-13.1v-1h20.5V102
		C473.7,106.7,474.6,108.5,480.1,113z M73.5,228.1v1H47.6v-1c5.1-4.5,6.1-6.3,6.1-10.9v-36.9c0-9.5-4.2-16.2-15.2-16.2
		c-6-0.1-11.8,2.3-16,6.6v46.5c0,4.6,1,6.4,6.1,10.9v1H2.7v-1c5.5-4.5,6.4-6.3,6.4-10.9v-76.5c0-5.4-1-7.2-7.2-13.2v-1h20.5v41.9
		c4.6-5.8,11.5-11.1,22.5-11.1c13.8,0,22.1,8.2,22.1,21.7v38.2C67.1,221.8,68,223.6,73.5,228.1z M80.6,194.2
		c0-20.7,12.5-36.7,33.8-36.7c21,0,33.2,15.6,33.2,36.3c0,20.9-12.5,36.9-33.8,36.9C92.8,230.6,80.6,215.1,80.6,194.2L80.6,194.2z
		 M132.6,194.2c0-19.4-2.7-33.9-18.6-33.9s-18.3,14.8-18.3,33.5c0,19.4,2.6,33.8,18.5,33.8S132.6,212.8,132.6,194.2L132.6,194.2z
		 M201.3,159.6v12l-0.6,0.2c-7.2-2.6-11.9-3.5-15.9-3.5c-4.8,0-7.9,1.3-10.3,3.2v45.9c0,4.6,1,6.1,7.1,10.8v1h-26.8v-1
		c5.4-4.5,6.4-6.3,6.4-10.9v-44.6c0-5.1-0.8-6.9-6.7-12.5v-1h19.6l0.5,10.4c6.1-8.8,12.7-12,18.6-12
		C196,157.5,198.8,158.2,201.3,159.6z M299.9,159.9L258.5,226H273c4.6,0,9.1-1.4,26.3-9.3l0.6,0.3l-2.7,12H242v-1l41.5-66h-13.8
		c-4.5,0-8.8,1.4-25.2,8.8l-0.6-0.3l1.9-11.4h54.1V159.9z M304.6,194.2c0-20.7,12.5-36.7,33.9-36.7c21,0,33.2,15.6,33.2,36.3
		c0,20.9-12.5,36.9-33.8,36.9C316.8,230.6,304.6,215.1,304.6,194.2z M356.6,194.2c0-19.4-2.7-33.8-18.6-33.8s-18.3,14.8-18.3,33.5
		c0,19.4,2.6,33.8,18.5,33.8S356.6,212.9,356.6,194.2L356.6,194.2z M449.3,228.1v1h-25.8v-1c5.1-4.5,6.1-6.3,6.1-10.9v-36.6
		c0-9.5-4.2-16-14.9-16c-5.9-0.1-11.7,2.2-16,6.3v46.4c0,4.6,1,6.4,6.1,10.9v1h-25.9v-1c5.5-4.5,6.4-6.3,6.4-10.9v-44.6
		c0-5.1-0.8-6.9-6.7-12.5v-1h19.6l0.5,9.6c4.3-5.6,11.2-11.2,22.3-11.2c13.8,0,22,8,22,21.5v38.2
		C442.9,221.8,443.9,223.6,449.3,228.1z M499.9,170.7c-11.9-8.3-16-10.3-20.5-10.3c-6.9,0-11.1,3.7-11.1,9.8
		c0,6.9,5.3,11.1,15.4,17.3c10.9,6.7,17.6,11.4,17.6,22.8c0,12-8.8,20.4-24.1,20.4c-6.5,0-12.9-1-19.1-3.1l-2.6-12.8l0.6-0.2
		c12.5,10.8,16.7,13.1,22.3,13.1c7.1,0,11.5-4.5,11.5-11.6c0-7.9-5.6-11.4-15.6-17.5c-10.8-6.6-17.3-12.2-17.3-22.5
		c0-11.4,8.7-18.8,23.3-18.8c6.5,0.1,12.9,0.9,19.2,2.4l0.8,10.4L499.9,170.7z M235,228.1v1h-26.2v-1c5.4-4.5,6.4-6.3,6.4-10.9
		v-44.6c0-5.1-0.8-6.9-6.7-12.5v-1h20.1v58.1C228.5,221.8,229.5,223.6,235,228.1z"/>
</g>
</svg>
